<svg xmlns="http://www.w3.org/2000/svg" width="3840" height="2160" viewBox="0 0 1920 1080"><defs>
<linearGradient id="bg" x1="0" y1="0" x2="1" y2="1"><stop stop-color="#020817"/><stop offset=".5" stop-color="#071b42"/><stop offset="1" stop-color="#16052e"/></linearGradient>
<linearGradient id="road" x1="0" y1="0" x2="1" y2="0"><stop stop-color="#101b33"/><stop offset=".5" stop-color="#040711"/><stop offset="1" stop-color="#16112a"/></linearGradient>
<linearGradient id="car" x1="0" y1="0" x2="1" y2="1"><stop stop-color="#1ce9ff"/><stop offset=".42" stop-color="#1552c7"/><stop offset="1" stop-color="#16052f"/></linearGradient>
<linearGradient id="pink" x1="0" y1="0" x2="1" y2="1"><stop stop-color="#ff16d7"/><stop offset="1" stop-color="#7625ff"/></linearGradient>
<filter id="glow"><feGaussianBlur stdDeviation="18" result="b"/><feMerge><feMergeNode in="b"/><feMergeNode in="SourceGraphic"/></feMerge></filter>
<filter id="soft"><feGaussianBlur stdDeviation="40"/></filter>
<pattern id="grid" width="90" height="90" patternUnits="userSpaceOnUse"><path d="M90 0H0V90" fill="none" stroke="#1aa5e622" stroke-width="2"/></pattern>
</defs><rect width="1920" height="1080" fill="url(#bg)"/><path d="M0 790Q500 650 1020 720T1920 650V1080H0Z" fill="#050b19"/>
<g opacity=".65"><rect x="0" y="220" width="70" height="390" fill="#07162e" stroke="#183b69" stroke-width="4"/><rect x="150" y="265" width="100" height="350" fill="#07162e" stroke="#183b69" stroke-width="4"/><rect x="300" y="310" width="130" height="310" fill="#07162e" stroke="#183b69" stroke-width="4"/><rect x="450" y="355" width="70" height="270" fill="#07162e" stroke="#183b69" stroke-width="4"/><rect x="600" y="220" width="100" height="390" fill="#07162e" stroke="#183b69" stroke-width="4"/><rect x="750" y="265" width="130" height="350" fill="#07162e" stroke="#183b69" stroke-width="4"/><rect x="900" y="310" width="70" height="310" fill="#07162e" stroke="#183b69" stroke-width="4"/><rect x="1050" y="355" width="100" height="270" fill="#07162e" stroke="#183b69" stroke-width="4"/><rect x="1200" y="220" width="130" height="390" fill="#07162e" stroke="#183b69" stroke-width="4"/><rect x="1350" y="265" width="70" height="350" fill="#07162e" stroke="#183b69" stroke-width="4"/><rect x="1500" y="310" width="100" height="310" fill="#07162e" stroke="#183b69" stroke-width="4"/><rect x="1650" y="355" width="130" height="270" fill="#07162e" stroke="#183b69" stroke-width="4"/><rect x="1800" y="220" width="70" height="390" fill="#07162e" stroke="#183b69" stroke-width="4"/></g>
<g filter="url(#soft)" opacity=".5"><circle cx="1250" cy="550" r="220" fill="#7c16ff"/><circle cx="420" cy="690" r="170" fill="#087dff"/></g><path d="M0 850L1920 720" stroke="#25e8ff" stroke-width="8" opacity=".5"/>
<g transform="translate(720 745) rotate(-3) scale(1.25)" filter="url(#glow)">
<path d="M-330 90Q-260 15-125 0L40-8Q165 0 285 78L330 115Q300 150 245 154H-245Q-310 145-330 90Z" fill="url(#car)" stroke="#5cefff" stroke-width="5"/>
<path d="M-130 5Q-70-72 45-70Q145-62 192 8L85 24-75 25Z" fill="#061128" stroke="#7defff" stroke-width="4"/>
<path d="M-286 126H-215M185 125H255" stroke="#ff18d7" stroke-width="12"/>
<circle cx="-215" cy="138" r="43" fill="#03060e" stroke="#38dcff" stroke-width="7"/><circle cx="215" cy="138" r="43" fill="#03060e" stroke="#38dcff" stroke-width="7"/>
</g><rect x="1180" y="150" width="500" height="310" rx="18" fill="#07152c" stroke="#245687" stroke-width="5" opacity=".9"/>
<text x="1230" y="215" fill="#fff" font-family="Arial" font-size="28" font-weight="700" letter-spacing="7">DRIVER PROFILE</text><circle cx="1300" cy="320" r="55" fill="url(#pink)"/><path d="M1270 360Q1300 315 1330 360" fill="#061128"/><path d="M1390 300H1600M1390 345H1550M1390 390H1630" stroke="#4a759f" stroke-width="8" stroke-linecap="round"/>
<text x="90" y="145" fill="#25e8ff" font-family="Arial" font-size="20" letter-spacing="7">RACING SYNDICATE LEAGUE</text><text x="90" y="205" fill="#fff" font-family="Arial" font-size="48" font-weight="700" font-style="italic" letter-spacing="5">DRIVER HQ</text></svg>