<svg xmlns="http://www.w3.org/2000/svg" viewBox="0 0 900 420" role="img" aria-labelledby="t d"><title id="t">RSL track map</title><desc id="d">Original stylized circuit map illustration for Racing Syndicate League.</desc><rect width="900" height="420" rx="24" fill="#071321"/><path d="M105 320C40 270 82 150 175 154c72 3 93 77 161 60 67-17 43-103 115-128 70-25 114 57 182 36 65-20 88-94 166-54 79 41 52 164-35 182-77 16-105-37-165-9-65 31-49 104-130 112-79 8-102-52-164-50-67 2-112 75-200 17z" fill="none" stroke="#0f2a43" stroke-width="42" stroke-linecap="round"/><path d="M105 320C40 270 82 150 175 154c72 3 93 77 161 60 67-17 43-103 115-128 70-25 114 57 182 36 65-20 88-94 166-54 79 41 52 164-35 182-77 16-105-37-165-9-65 31-49 104-130 112-79 8-102-52-164-50-67 2-112 75-200 17z" fill="none" stroke="#28d7ff" stroke-width="5" stroke-dasharray="18 12"/><circle cx="105" cy="320" r="10" fill="#2b7fff"/><circle cx="764" cy="250" r="10" fill="#7b5cff"/><path d="M105 320l-25 18M764 250l30-14" stroke="#fff" stroke-width="3" opacity=".8"/><g fill="#91a9c4" font-family="Arial" font-size="18"><text x="64" y="378">START</text><text x="748" y="286">FINISH</text><text x="370" y="45">RSL CIRCUIT • TRACK INTEL</text></g></svg>